<svg width="82" height="11" viewBox="0 0 82 11" fill="none" xmlns="http://www.w3.org/2000/svg">
<g id="Frame 1" clip-path="url(#clip0)">
<line id="Line 1" x1="1.5" y1="6.5" x2="80.5" y2="6.5" stroke="#F6993F" stroke-linecap="round" stroke-linejoin="round"/>
<g id="AdnimPanel">
<path d="M10.868 8.14H7.22L6.548 10H5.396L8.42 1.684H9.68L12.692 10H11.54L10.868 8.14ZM10.556 7.252L9.044 3.028L7.532 7.252H10.556ZM13.6019 6.688C13.6019 6.016 13.7379 5.428 14.0099 4.924C14.2819 4.412 14.6539 4.016 15.1259 3.736C15.6059 3.456 16.1419 3.316 16.7339 3.316C17.2459 3.316 17.7219 3.436 18.1619 3.676C18.6019 3.908 18.9379 4.216 19.1699 4.6V1.12H20.2739V10H19.1699V8.764C18.9539 9.156 18.6339 9.48 18.2099 9.736C17.7859 9.984 17.2899 10.108 16.7219 10.108C16.1379 10.108 15.6059 9.964 15.1259 9.676C14.6539 9.388 14.2819 8.984 14.0099 8.464C13.7379 7.944 13.6019 7.352 13.6019 6.688ZM19.1699 6.7C19.1699 6.204 19.0699 5.772 18.8699 5.404C18.6699 5.036 18.3979 4.756 18.0539 4.564C17.7179 4.364 17.3459 4.264 16.9379 4.264C16.5299 4.264 16.1579 4.36 15.8219 4.552C15.4859 4.744 15.2179 5.024 15.0179 5.392C14.8179 5.76 14.7179 6.192 14.7179 6.688C14.7179 7.192 14.8179 7.632 15.0179 8.008C15.2179 8.376 15.4859 8.66 15.8219 8.86C16.1579 9.052 16.5299 9.148 16.9379 9.148C17.3459 9.148 17.7179 9.052 18.0539 8.86C18.3979 8.66 18.6699 8.376 18.8699 8.008C19.0699 7.632 19.1699 7.196 19.1699 6.7ZM25.3233 3.304C26.1233 3.304 26.7713 3.548 27.2673 4.036C27.7633 4.516 28.0113 5.212 28.0113 6.124V10H26.9313V6.28C26.9313 5.624 26.7673 5.124 26.4393 4.78C26.1113 4.428 25.6633 4.252 25.0953 4.252C24.5193 4.252 24.0593 4.432 23.7153 4.792C23.3793 5.152 23.2113 5.676 23.2113 6.364V10H22.1193V3.424H23.2113V4.36C23.4273 4.024 23.7193 3.764 24.0873 3.58C24.4633 3.396 24.8753 3.304 25.3233 3.304ZM30.3591 2.356C30.1511 2.356 29.9751 2.284 29.8311 2.14C29.6871 1.996 29.6151 1.82 29.6151 1.612C29.6151 1.404 29.6871 1.228 29.8311 1.084C29.9751 0.94 30.1511 0.868 30.3591 0.868C30.5591 0.868 30.7271 0.94 30.8631 1.084C31.0071 1.228 31.0791 1.404 31.0791 1.612C31.0791 1.82 31.0071 1.996 30.8631 2.14C30.7271 2.284 30.5591 2.356 30.3591 2.356ZM30.8871 3.424V10H29.7951V3.424H30.8871ZM40.6562 3.304C41.1682 3.304 41.6242 3.412 42.0242 3.628C42.4242 3.836 42.7402 4.152 42.9722 4.576C43.2042 5 43.3202 5.516 43.3202 6.124V10H42.2402V6.28C42.2402 5.624 42.0762 5.124 41.7482 4.78C41.4282 4.428 40.9922 4.252 40.4402 4.252C39.8722 4.252 39.4202 4.436 39.0842 4.804C38.7482 5.164 38.5802 5.688 38.5802 6.376V10H37.5002V6.28C37.5002 5.624 37.3362 5.124 37.0082 4.78C36.6882 4.428 36.2522 4.252 35.7002 4.252C35.1322 4.252 34.6802 4.436 34.3442 4.804C34.0082 5.164 33.8402 5.688 33.8402 6.376V10H32.7482V3.424H33.8402V4.372C34.0562 4.028 34.3442 3.764 34.7042 3.58C35.0722 3.396 35.4762 3.304 35.9162 3.304C36.4682 3.304 36.9562 3.428 37.3802 3.676C37.8042 3.924 38.1202 4.288 38.3282 4.768C38.5122 4.304 38.8162 3.944 39.2402 3.688C39.6642 3.432 40.1362 3.304 40.6562 3.304ZM50.7035 4.084C50.7035 4.78 50.4635 5.36 49.9835 5.824C49.5115 6.28 48.7875 6.508 47.8115 6.508H46.2035V10H45.1115V1.636H47.8115C48.7555 1.636 49.4715 1.864 49.9595 2.32C50.4555 2.776 50.7035 3.364 50.7035 4.084ZM47.8115 5.608C48.4195 5.608 48.8675 5.476 49.1555 5.212C49.4435 4.948 49.5875 4.572 49.5875 4.084C49.5875 3.052 48.9955 2.536 47.8115 2.536H46.2035V5.608H47.8115ZM51.6527 6.688C51.6527 6.016 51.7887 5.428 52.0607 4.924C52.3327 4.412 52.7047 4.016 53.1767 3.736C53.6567 3.456 54.1887 3.316 54.7727 3.316C55.3487 3.316 55.8487 3.44 56.2727 3.688C56.6967 3.936 57.0127 4.248 57.2207 4.624V3.424H58.3247V10H57.2207V8.776C57.0047 9.16 56.6807 9.48 56.2487 9.736C55.8247 9.984 55.3287 10.108 54.7607 10.108C54.1767 10.108 53.6487 9.964 53.1767 9.676C52.7047 9.388 52.3327 8.984 52.0607 8.464C51.7887 7.944 51.6527 7.352 51.6527 6.688ZM57.2207 6.7C57.2207 6.204 57.1207 5.772 56.9207 5.404C56.7207 5.036 56.4487 4.756 56.1047 4.564C55.7687 4.364 55.3967 4.264 54.9887 4.264C54.5807 4.264 54.2087 4.36 53.8727 4.552C53.5367 4.744 53.2687 5.024 53.0687 5.392C52.8687 5.76 52.7687 6.192 52.7687 6.688C52.7687 7.192 52.8687 7.632 53.0687 8.008C53.2687 8.376 53.5367 8.66 53.8727 8.86C54.2087 9.052 54.5807 9.148 54.9887 9.148C55.3967 9.148 55.7687 9.052 56.1047 8.86C56.4487 8.66 56.7207 8.376 56.9207 8.008C57.1207 7.632 57.2207 7.196 57.2207 6.7ZM63.3741 3.304C64.1741 3.304 64.8221 3.548 65.3181 4.036C65.8141 4.516 66.0621 5.212 66.0621 6.124V10H64.9821V6.28C64.9821 5.624 64.8181 5.124 64.4901 4.78C64.1621 4.428 63.7141 4.252 63.1461 4.252C62.5701 4.252 62.1101 4.432 61.7661 4.792C61.4301 5.152 61.2621 5.676 61.2621 6.364V10H60.1701V3.424H61.2621V4.36C61.4781 4.024 61.7701 3.764 62.1381 3.58C62.5141 3.396 62.9261 3.304 63.3741 3.304ZM73.8459 6.46C73.8459 6.668 73.8339 6.888 73.8099 7.12H68.5539C68.5939 7.768 68.8139 8.276 69.2139 8.644C69.6219 9.004 70.1139 9.184 70.6899 9.184C71.1619 9.184 71.5539 9.076 71.8659 8.86C72.1859 8.636 72.4099 8.34 72.5379 7.972H73.7139C73.5379 8.604 73.1859 9.12 72.6579 9.52C72.1299 9.912 71.4739 10.108 70.6899 10.108C70.0659 10.108 69.5059 9.968 69.0099 9.688C68.5219 9.408 68.1379 9.012 67.8579 8.5C67.5779 7.98 67.4379 7.38 67.4379 6.7C67.4379 6.02 67.5739 5.424 67.8459 4.912C68.1179 4.4 68.4979 4.008 68.9859 3.736C69.4819 3.456 70.0499 3.316 70.6899 3.316C71.3139 3.316 71.8659 3.452 72.3459 3.724C72.8259 3.996 73.1939 4.372 73.4499 4.852C73.7139 5.324 73.8459 5.86 73.8459 6.46ZM72.7179 6.232C72.7179 5.816 72.6259 5.46 72.4419 5.164C72.2579 4.86 72.0059 4.632 71.6859 4.48C71.3739 4.32 71.0259 4.24 70.6419 4.24C70.0899 4.24 69.6179 4.416 69.2259 4.768C68.8419 5.12 68.6219 5.608 68.5659 6.232H72.7179ZM76.3793 1.12V10H75.2873V1.12H76.3793Z" fill="white"/>
<path d="M10.868 8.14L10.9621 8.10602C10.9477 8.0664 10.9101 8.04 10.868 8.04V8.14ZM7.22 8.14V8.04C7.17787 8.04 7.14026 8.0664 7.12595 8.10602L7.22 8.14ZM6.548 10V10.1C6.59013 10.1 6.62774 10.0736 6.64205 10.034L6.548 10ZM5.396 10L5.30202 9.96583C5.29087 9.99648 5.29538 10.0307 5.31409 10.0574C5.33281 10.0841 5.36338 10.1 5.396 10.1V10ZM8.42 1.684V1.584C8.37795 1.584 8.34039 1.61031 8.32602 1.64983L8.42 1.684ZM9.68 1.684L9.77402 1.64995C9.75969 1.61036 9.7221 1.584 9.68 1.584V1.684ZM12.692 10V10.1C12.7246 10.1 12.7552 10.0841 12.7739 10.0574C12.7926 10.0307 12.7971 9.9966 12.786 9.96595L12.692 10ZM11.54 10L11.446 10.034C11.4603 10.0736 11.4979 10.1 11.54 10.1V10ZM10.556 7.252V7.352C10.5885 7.352 10.619 7.33617 10.6378 7.30958C10.6565 7.28298 10.6611 7.24893 10.6502 7.2183L10.556 7.252ZM9.044 3.028L9.13815 2.9943C9.12392 2.95453 9.08624 2.928 9.044 2.928C9.00177 2.928 8.96408 2.95453 8.94985 2.9943L9.044 3.028ZM7.532 7.252L7.43785 7.2183C7.42689 7.24893 7.43151 7.28298 7.45024 7.30958C7.46897 7.33617 7.49947 7.352 7.532 7.352V7.252ZM10.868 8.04H7.22V8.24H10.868V8.04ZM7.12595 8.10602L6.45395 9.96602L6.64205 10.034L7.31405 8.17398L7.12595 8.10602ZM6.548 9.9H5.396V10.1H6.548V9.9ZM5.48998 10.0342L8.51398 1.71817L8.32602 1.64983L5.30202 9.96583L5.48998 10.0342ZM8.42 1.784H9.68V1.584H8.42V1.784ZM9.58598 1.71805L12.598 10.0341L12.786 9.96595L9.77402 1.64995L9.58598 1.71805ZM12.692 9.9H11.54V10.1H12.692V9.9ZM11.6341 9.96602L10.9621 8.10602L10.774 8.17398L11.446 10.034L11.6341 9.96602ZM10.6502 7.2183L9.13815 2.9943L8.94985 3.0617L10.4619 7.2857L10.6502 7.2183ZM8.94985 2.9943L7.43785 7.2183L7.62615 7.2857L9.13815 3.0617L8.94985 2.9943ZM7.532 7.352H10.556V7.152H7.532V7.352ZM14.0099 4.924L14.0979 4.97149L14.0982 4.97092L14.0099 4.924ZM15.1259 3.736L15.0755 3.64962L15.0749 3.64999L15.1259 3.736ZM18.1619 3.676L18.114 3.7638L18.1153 3.76446L18.1619 3.676ZM19.1699 4.6L19.0843 4.65171C19.1076 4.69013 19.1535 4.70838 19.1968 4.69633C19.24 4.68428 19.2699 4.64489 19.2699 4.6H19.1699ZM19.1699 1.12V1.02C19.1147 1.02 19.0699 1.06477 19.0699 1.12H19.1699ZM20.2739 1.12H20.3739C20.3739 1.06477 20.3292 1.02 20.2739 1.02V1.12ZM20.2739 10V10.1C20.3292 10.1 20.3739 10.0552 20.3739 10H20.2739ZM19.1699 10H19.0699C19.0699 10.0552 19.1147 10.1 19.1699 10.1V10ZM19.1699 8.764H19.2699C19.2699 8.71837 19.239 8.67852 19.1949 8.66715C19.1507 8.65578 19.1044 8.67577 19.0824 8.71574L19.1699 8.764ZM18.2099 9.736L18.2604 9.82233L18.2616 9.82161L18.2099 9.736ZM15.1259 9.676L15.0738 9.76137L15.0745 9.76175L15.1259 9.676ZM14.0099 8.464L14.0985 8.41765L14.0099 8.464ZM18.0539 4.564L18.0028 4.64996L18.0052 4.65132L18.0539 4.564ZM15.8219 4.552L15.7723 4.46518L15.8219 4.552ZM15.0179 5.392L15.1058 5.43975L15.0179 5.392ZM15.0179 8.008L14.9296 8.05496L14.9301 8.05575L15.0179 8.008ZM15.8219 8.86L15.7708 8.94594L15.7723 8.94682L15.8219 8.86ZM18.0539 8.86L18.1036 8.94683L18.1042 8.94645L18.0539 8.86ZM18.8699 8.008L18.9578 8.05575L18.9582 8.05496L18.8699 8.008ZM13.7019 6.688C13.7019 6.0297 13.8351 5.45856 14.0979 4.97149L13.9219 4.87651C13.6408 5.39744 13.5019 6.0023 13.5019 6.688H13.7019ZM14.0982 4.97092C14.3621 4.47417 14.7216 4.09211 15.177 3.82201L15.0749 3.64999C14.5862 3.93989 14.2017 4.34983 13.9216 4.87708L14.0982 4.97092ZM15.1763 3.82238C15.64 3.55188 16.1584 3.416 16.7339 3.416V3.216C16.1254 3.216 15.5718 3.36011 15.0756 3.64962L15.1763 3.82238ZM16.7339 3.416C17.2296 3.416 17.6891 3.53198 18.1141 3.76379L18.2098 3.58821C17.7548 3.34002 17.2623 3.216 16.7339 3.216V3.416ZM18.1153 3.76446C18.541 3.98893 18.8627 4.28493 19.0843 4.65171L19.2555 4.54829C19.0131 4.14707 18.6629 3.82707 18.2086 3.58754L18.1153 3.76446ZM19.2699 4.6V1.12H19.0699V4.6H19.2699ZM19.1699 1.22H20.2739V1.02H19.1699V1.22ZM20.1739 1.12V10H20.3739V1.12H20.1739ZM20.2739 9.9H19.1699V10.1H20.2739V9.9ZM19.2699 10V8.764H19.0699V10H19.2699ZM19.0824 8.71574C18.8757 9.09075 18.5689 9.40248 18.1583 9.65039L18.2616 9.82161C18.699 9.55752 19.0322 9.22124 19.2575 8.81226L19.0824 8.71574ZM18.1594 9.64968C17.753 9.8874 17.275 10.008 16.7219 10.008V10.208C17.3049 10.208 17.8189 10.0806 18.2604 9.82232L18.1594 9.64968ZM16.7219 10.008C16.1552 10.008 15.6412 9.86851 15.1774 9.59025L15.0745 9.76175C15.5707 10.0595 16.1206 10.208 16.7219 10.208V10.008ZM15.178 9.59064C14.7225 9.31267 14.3627 8.9226 14.0985 8.41765L13.9213 8.51035C14.2012 9.0454 14.5854 9.46333 15.0739 9.76136L15.178 9.59064ZM14.0985 8.41765C13.835 7.91374 13.7019 7.338 13.7019 6.688H13.5019C13.5019 7.366 13.6409 7.97426 13.9213 8.51035L14.0985 8.41765ZM19.2699 6.7C19.2699 6.19039 19.1671 5.74139 18.9578 5.35625L18.7821 5.45175C18.9728 5.80261 19.0699 6.21761 19.0699 6.7H19.2699ZM18.9578 5.35625C18.7494 4.97272 18.4643 4.67849 18.1027 4.47668L18.0052 4.65132C18.3316 4.83351 18.5905 5.09928 18.7821 5.45175L18.9578 5.35625ZM18.1051 4.47807C17.7529 4.26845 17.3631 4.164 16.9379 4.164V4.364C17.3287 4.364 17.6829 4.45955 18.0028 4.64993L18.1051 4.47807ZM16.9379 4.164C16.5135 4.164 16.1243 4.26407 15.7723 4.46518L15.8716 4.63882C16.1916 4.45593 16.5464 4.364 16.9379 4.364V4.164ZM15.7723 4.46518C15.4189 4.66715 15.1382 4.96132 14.9301 5.34425L15.1058 5.43975C15.2977 5.08668 15.553 4.82085 15.8716 4.63882L15.7723 4.46518ZM14.9301 5.34425C14.7208 5.72939 14.6179 6.17839 14.6179 6.688H14.8179C14.8179 6.20561 14.9151 5.79061 15.1058 5.43975L14.9301 5.34425ZM14.6179 6.688C14.6179 7.20538 14.7207 7.66207 14.9297 8.05496L15.1062 7.96104C14.9152 7.60193 14.8179 7.17862 14.8179 6.688H14.6179ZM14.9301 8.05575C15.138 8.43838 15.4182 8.73608 15.7708 8.94593L15.8731 8.77407C15.5536 8.58392 15.2978 8.31362 15.1058 7.96025L14.9301 8.05575ZM15.7723 8.94682C16.1243 9.14793 16.5135 9.248 16.9379 9.248V9.048C16.5464 9.048 16.1916 8.95607 15.8716 8.77318L15.7723 8.94682ZM16.9379 9.248C17.3624 9.248 17.7516 9.14793 18.1036 8.94682L18.0043 8.77318C17.6843 8.95607 17.3295 9.048 16.9379 9.048V9.248ZM18.1042 8.94645C18.4649 8.73675 18.7495 8.43897 18.9578 8.05575L18.7821 7.96025C18.5903 8.31303 18.331 8.58325 18.0037 8.77355L18.1042 8.94645ZM18.9582 8.05496C19.1671 7.66229 19.2699 7.20967 19.2699 6.7H19.0699C19.0699 7.18233 18.9728 7.60171 18.7817 7.96104L18.9582 8.05496ZM27.2673 4.036L27.1972 4.10729L27.1978 4.10786L27.2673 4.036ZM28.0113 10V10.1C28.0665 10.1 28.1113 10.0552 28.1113 10H28.0113ZM26.9313 10H26.8313C26.8313 10.0552 26.8761 10.1 26.9313 10.1V10ZM26.4393 4.78L26.3661 4.84818L26.3669 4.84901L26.4393 4.78ZM23.7153 4.792L23.643 4.72291L23.6422 4.72377L23.7153 4.792ZM23.2113 10V10.1C23.2665 10.1 23.3113 10.0552 23.3113 10H23.2113ZM22.1193 10H22.0193C22.0193 10.0552 22.0641 10.1 22.1193 10.1V10ZM22.1193 3.424V3.324C22.0641 3.324 22.0193 3.36877 22.0193 3.424H22.1193ZM23.2113 3.424H23.3113C23.3113 3.36877 23.2665 3.324 23.2113 3.324V3.424ZM23.2113 4.36H23.1113C23.1113 4.40437 23.1406 4.44344 23.1831 4.45595C23.2257 4.46845 23.2714 4.4514 23.2954 4.41408L23.2113 4.36ZM24.0873 3.58L24.0434 3.49017L24.0426 3.49056L24.0873 3.58ZM25.3233 3.404C26.1013 3.404 26.7227 3.64047 27.1972 4.10728L27.3374 3.96472C26.8199 3.45553 26.1453 3.204 25.3233 3.204V3.404ZM27.1978 4.10786C27.6686 4.56353 27.9113 5.23002 27.9113 6.124H28.1113C28.1113 5.19398 27.858 4.46847 27.3369 3.96414L27.1978 4.10786ZM27.9113 6.124V10H28.1113V6.124H27.9113ZM28.0113 9.9H26.9313V10.1H28.0113V9.9ZM27.0313 10V6.28H26.8313V10H27.0313ZM27.0313 6.28C27.0313 5.6082 26.8632 5.07969 26.5117 4.71099L26.3669 4.84901C26.6714 5.16831 26.8313 5.6398 26.8313 6.28H27.0313ZM26.5125 4.71183C26.1621 4.33586 25.6856 4.152 25.0953 4.152V4.352C25.641 4.352 26.0605 4.52014 26.3662 4.84817L26.5125 4.71183ZM25.0953 4.152C24.4967 4.152 24.0089 4.34003 23.643 4.72291L23.7876 4.86109C24.1097 4.52397 24.542 4.352 25.0953 4.352V4.152ZM23.6422 4.72377C23.2831 5.10855 23.1113 5.66078 23.1113 6.364H23.3113C23.3113 5.69122 23.4755 5.19545 23.7884 4.86023L23.6422 4.72377ZM23.1113 6.364V10H23.3113V6.364H23.1113ZM23.2113 9.9H22.1193V10.1H23.2113V9.9ZM22.2193 10V3.424H22.0193V10H22.2193ZM22.1193 3.524H23.2113V3.324H22.1193V3.524ZM23.1113 3.424V4.36H23.3113V3.424H23.1113ZM23.2954 4.41408C23.5014 4.09366 23.7796 3.84566 24.132 3.66944L24.0426 3.49056C23.659 3.68234 23.3532 3.95434 23.1272 4.30592L23.2954 4.41408ZM24.1313 3.66982C24.4926 3.49298 24.8895 3.404 25.3233 3.404V3.204C24.8612 3.204 24.434 3.29902 24.0434 3.49018L24.1313 3.66982ZM29.8311 2.14L29.9018 2.06929L29.8311 2.14ZM29.8311 1.084L29.9018 1.15471L29.8311 1.084ZM30.8631 1.084L30.7904 1.15269L30.7924 1.15471L30.8631 1.084ZM30.8631 2.14L30.7924 2.06926L30.7904 2.07134L30.8631 2.14ZM30.8871 3.424H30.9871C30.9871 3.36877 30.9423 3.324 30.8871 3.324V3.424ZM30.8871 10V10.1C30.9423 10.1 30.9871 10.0552 30.9871 10H30.8871ZM29.7951 10H29.6951C29.6951 10.0552 29.7399 10.1 29.7951 10.1V10ZM29.7951 3.424V3.324C29.7399 3.324 29.6951 3.36877 29.6951 3.424H29.7951ZM30.3591 2.256C30.177 2.256 30.0266 2.19409 29.9018 2.06929L29.7604 2.21071C29.9236 2.37391 30.1252 2.456 30.3591 2.456V2.256ZM29.9018 2.06929C29.777 1.94449 29.7151 1.79411 29.7151 1.612H29.5151C29.5151 1.84589 29.5972 2.04751 29.7604 2.21071L29.9018 2.06929ZM29.7151 1.612C29.7151 1.42989 29.777 1.27951 29.9018 1.15471L29.7604 1.01329C29.5972 1.17649 29.5151 1.37811 29.5151 1.612H29.7151ZM29.9018 1.15471C30.0266 1.02991 30.177 0.967999 30.3591 0.967999V0.768C30.1252 0.768 29.9236 0.850091 29.7604 1.01329L29.9018 1.15471ZM30.3591 0.967999C30.5319 0.967999 30.6735 1.02888 30.7904 1.15266L30.9358 1.01534C30.7807 0.851115 30.5863 0.768 30.3591 0.768V0.967999ZM30.7924 1.15471C30.9172 1.27951 30.9791 1.42989 30.9791 1.612H31.1791C31.1791 1.37811 31.097 1.17649 30.9338 1.01329L30.7924 1.15471ZM30.9791 1.612C30.9791 1.79411 30.9172 1.94449 30.7924 2.06929L30.9338 2.21071C31.097 2.04751 31.1791 1.84589 31.1791 1.612H30.9791ZM30.7904 2.07134C30.6735 2.19512 30.5319 2.256 30.3591 2.256V2.456C30.5863 2.456 30.7807 2.37288 30.9358 2.20866L30.7904 2.07134ZM30.7871 3.424V10H30.9871V3.424H30.7871ZM30.8871 9.9H29.7951V10.1H30.8871V9.9ZM29.8951 10V3.424H29.6951V10H29.8951ZM29.7951 3.524H30.8871V3.324H29.7951V3.524ZM42.0242 3.628L41.9767 3.716L41.9781 3.71672L42.0242 3.628ZM42.9722 4.576L42.8845 4.624L42.9722 4.576ZM43.3202 10V10.1C43.3754 10.1 43.4202 10.0552 43.4202 10H43.3202ZM42.2402 10H42.1402C42.1402 10.0552 42.185 10.1 42.2402 10.1V10ZM41.7482 4.78L41.6742 4.84729L41.6758 4.84901L41.7482 4.78ZM39.0842 4.804L39.1573 4.87224L39.1581 4.87143L39.0842 4.804ZM38.5802 10V10.1C38.6354 10.1 38.6802 10.0552 38.6802 10H38.5802ZM37.5002 10H37.4002C37.4002 10.0552 37.445 10.1 37.5002 10.1V10ZM37.0082 4.78L36.9342 4.84729L36.9358 4.84901L37.0082 4.78ZM34.3442 4.804L34.4173 4.87224L34.4181 4.87143L34.3442 4.804ZM33.8402 10V10.1C33.8954 10.1 33.9402 10.0552 33.9402 10H33.8402ZM32.7482 10H32.6482C32.6482 10.0552 32.693 10.1 32.7482 10.1V10ZM32.7482 3.424V3.324C32.693 3.324 32.6482 3.36877 32.6482 3.424H32.7482ZM33.8402 3.424H33.9402C33.9402 3.36877 33.8954 3.324 33.8402 3.324V3.424ZM33.8402 4.372H33.7402C33.7402 4.41657 33.7697 4.45576 33.8125 4.4681C33.8554 4.48043 33.9012 4.46292 33.9249 4.42518L33.8402 4.372ZM34.7042 3.58L34.6595 3.49055L34.6587 3.49096L34.7042 3.58ZM37.3802 3.676L37.3297 3.76232L37.3802 3.676ZM38.3282 4.768L38.2365 4.80776C38.2525 4.84485 38.2894 4.86862 38.3298 4.86799C38.3702 4.86735 38.4063 4.84244 38.4212 4.80486L38.3282 4.768ZM39.2402 3.688L39.2919 3.77361L39.2402 3.688ZM40.6562 3.404C41.1538 3.404 41.5931 3.50882 41.9767 3.71599L42.0717 3.54001C41.6554 3.31518 41.1827 3.204 40.6562 3.204V3.404ZM41.9781 3.71672C42.3592 3.9149 42.6613 4.21608 42.8845 4.624L43.0599 4.528C42.8191 4.08792 42.4892 3.7571 42.0704 3.53928L41.9781 3.71672ZM42.8845 4.624C43.1066 5.02996 43.2202 5.52853 43.2202 6.124H43.4202C43.4202 5.50347 43.3018 4.97004 43.0599 4.528L42.8845 4.624ZM43.2202 6.124V10H43.4202V6.124H43.2202ZM43.3202 9.9H42.2402V10.1H43.3202V9.9ZM42.3402 10V6.28H42.1402V10H42.3402ZM42.3402 6.28C42.3402 5.6082 42.1721 5.07969 41.8206 4.71099L41.6758 4.84901C41.9803 5.16831 42.1402 5.6398 42.1402 6.28H42.3402ZM41.8222 4.71273C41.4802 4.33648 41.0154 4.152 40.4402 4.152V4.352C40.969 4.352 41.3763 4.51952 41.6742 4.84727L41.8222 4.71273ZM40.4402 4.152C39.8485 4.152 39.3681 4.34482 39.0104 4.73657L39.1581 4.87143C39.4724 4.52718 39.896 4.352 40.4402 4.352V4.152ZM39.0111 4.73577C38.652 5.12055 38.4802 5.67278 38.4802 6.376H38.6802C38.6802 5.70322 38.8445 5.20745 39.1573 4.87223L39.0111 4.73577ZM38.4802 6.376V10H38.6802V6.376H38.4802ZM38.5802 9.9H37.5002V10.1H38.5802V9.9ZM37.6002 10V6.28H37.4002V10H37.6002ZM37.6002 6.28C37.6002 5.6082 37.4321 5.07969 37.0806 4.71099L36.9358 4.84901C37.2403 5.16831 37.4002 5.6398 37.4002 6.28H37.6002ZM37.0822 4.71273C36.7402 4.33648 36.2754 4.152 35.7002 4.152V4.352C36.229 4.352 36.6363 4.51952 36.9342 4.84727L37.0822 4.71273ZM35.7002 4.152C35.1085 4.152 34.6281 4.34482 34.2704 4.73657L34.4181 4.87143C34.7324 4.52718 35.156 4.352 35.7002 4.352V4.152ZM34.2711 4.73577C33.912 5.12055 33.7402 5.67278 33.7402 6.376H33.9402C33.9402 5.70322 34.1045 5.20745 34.4173 4.87223L34.2711 4.73577ZM33.7402 6.376V10H33.9402V6.376H33.7402ZM33.8402 9.9H32.7482V10.1H33.8402V9.9ZM32.8482 10V3.424H32.6482V10H32.8482ZM32.7482 3.524H33.8402V3.324H32.7482V3.524ZM33.7402 3.424V4.372H33.9402V3.424H33.7402ZM33.9249 4.42518C34.1314 4.09637 34.4059 3.8448 34.7497 3.66904L34.6587 3.49096C34.2826 3.6832 33.9811 3.95963 33.7555 4.31882L33.9249 4.42518ZM34.7489 3.66944C35.1021 3.49286 35.4906 3.404 35.9162 3.404V3.204C35.4618 3.204 35.0423 3.29914 34.6595 3.49056L34.7489 3.66944ZM35.9162 3.404C36.4527 3.404 36.9229 3.52435 37.3297 3.76232L37.4307 3.58968C36.9896 3.33165 36.4837 3.204 35.9162 3.204V3.404ZM37.3297 3.76232C37.7341 3.99886 38.0363 4.34593 38.2365 4.80776L38.42 4.72824C38.2041 4.23007 37.8743 3.84914 37.4307 3.58968L37.3297 3.76232ZM38.4212 4.80486C38.5972 4.36101 38.8868 4.01821 39.2919 3.77361L39.1885 3.60239C38.7457 3.86979 38.4273 4.24699 38.2353 4.73114L38.4212 4.80486ZM39.2919 3.77361C39.6995 3.5275 40.1535 3.404 40.6562 3.404V3.204C40.1189 3.204 39.6289 3.3365 39.1885 3.60239L39.2919 3.77361ZM49.9835 5.824L50.053 5.89592L50.053 5.8959L49.9835 5.824ZM46.2035 6.508V6.408C46.1483 6.408 46.1035 6.45277 46.1035 6.508H46.2035ZM46.2035 10V10.1C46.2587 10.1 46.3035 10.0552 46.3035 10H46.2035ZM45.1115 10H45.0115C45.0115 10.0552 45.0563 10.1 45.1115 10.1V10ZM45.1115 1.636V1.536C45.0563 1.536 45.0115 1.58077 45.0115 1.636H45.1115ZM49.9595 2.32L49.8912 2.39307L49.8918 2.39362L49.9595 2.32ZM49.1555 5.212L49.2231 5.28572L49.1555 5.212ZM46.2035 2.536V2.436C46.1483 2.436 46.1035 2.48077 46.1035 2.536H46.2035ZM46.2035 5.608H46.1035C46.1035 5.66323 46.1483 5.708 46.2035 5.708V5.608ZM50.6035 4.084C50.6035 4.75418 50.3736 5.30782 49.914 5.7521L50.053 5.8959C50.5534 5.41218 50.8035 4.80582 50.8035 4.084H50.6035ZM49.914 5.75208C49.468 6.18295 48.774 6.408 47.8115 6.408V6.608C48.801 6.608 49.555 6.37705 50.053 5.89592L49.914 5.75208ZM47.8115 6.408H46.2035V6.608H47.8115V6.408ZM46.1035 6.508V10H46.3035V6.508H46.1035ZM46.2035 9.9H45.1115V10.1H46.2035V9.9ZM45.2115 10V1.636H45.0115V10H45.2115ZM45.1115 1.736H47.8115V1.536H45.1115V1.736ZM47.8115 1.736C48.7406 1.736 49.4282 1.96041 49.8912 2.39306L50.0278 2.24693C49.5148 1.76759 48.7704 1.536 47.8115 1.536V1.736ZM49.8918 2.39362C50.3657 2.82927 50.6035 3.38982 50.6035 4.084H50.8035C50.8035 3.33818 50.5453 2.72273 50.0272 2.24638L49.8918 2.39362ZM47.8115 5.708C48.4311 5.708 48.9087 5.57389 49.2231 5.28572L49.0879 5.13828C48.8263 5.37811 48.4079 5.508 47.8115 5.508V5.708ZM49.2231 5.28572C49.5367 4.99825 49.6875 4.59255 49.6875 4.084H49.4875C49.4875 4.55145 49.3503 4.89775 49.0879 5.13828L49.2231 5.28572ZM49.6875 4.084C49.6875 3.54874 49.5333 3.13014 49.2092 2.84762C48.8877 2.56738 48.4158 2.436 47.8115 2.436V2.636C48.3912 2.636 48.8073 2.76262 49.0778 2.99838C49.3457 3.23186 49.4875 3.58726 49.4875 4.084H49.6875ZM47.8115 2.436H46.2035V2.636H47.8115V2.436ZM46.1035 2.536V5.608H46.3035V2.536H46.1035ZM46.2035 5.708H47.8115V5.508H46.2035V5.708ZM52.0607 4.924L52.1487 4.97149L52.149 4.97092L52.0607 4.924ZM53.1767 3.736L53.1263 3.64962L53.1257 3.64999L53.1767 3.736ZM56.2727 3.688L56.2222 3.77432L56.2727 3.688ZM57.2207 4.624L57.1332 4.67241C57.1553 4.71231 57.2016 4.73222 57.2457 4.72083C57.2899 4.70943 57.3207 4.6696 57.3207 4.624H57.2207ZM57.2207 3.424V3.324C57.1655 3.324 57.1207 3.36877 57.1207 3.424H57.2207ZM58.3247 3.424H58.4247C58.4247 3.36877 58.3799 3.324 58.3247 3.324V3.424ZM58.3247 10V10.1C58.3799 10.1 58.4247 10.0552 58.4247 10H58.3247ZM57.2207 10H57.1207C57.1207 10.0552 57.1655 10.1 57.2207 10.1V10ZM57.2207 8.776H57.3207C57.3207 8.73053 57.29 8.69079 57.2461 8.67926C57.2021 8.66774 57.1559 8.68734 57.1336 8.72697L57.2207 8.776ZM56.2487 9.736L56.2992 9.82232L56.2997 9.82203L56.2487 9.736ZM53.1767 9.676L53.1246 9.76136L53.1767 9.676ZM52.0607 8.464L52.1493 8.41765L52.0607 8.464ZM56.1047 4.564L56.0536 4.64996L56.056 4.65132L56.1047 4.564ZM53.8727 4.552L53.8231 4.46518L53.8727 4.552ZM53.0687 5.392L53.1566 5.43975L53.0687 5.392ZM53.0687 8.008L52.9804 8.05496L52.9809 8.05575L53.0687 8.008ZM53.8727 8.86L53.8216 8.94594L53.8231 8.94682L53.8727 8.86ZM56.1047 8.86L56.1543 8.94683L56.155 8.94645L56.1047 8.86ZM56.9207 8.008L57.0086 8.05575L57.009 8.05496L56.9207 8.008ZM51.7527 6.688C51.7527 6.0297 51.8859 5.45856 52.1487 4.97149L51.9727 4.87651C51.6916 5.39744 51.5527 6.0023 51.5527 6.688H51.7527ZM52.149 4.97092C52.4129 4.47417 52.7724 4.09211 53.2277 3.82201L53.1257 3.64999C52.637 3.93989 52.2525 4.34983 51.9724 4.87708L52.149 4.97092ZM53.2271 3.82238C53.691 3.55176 54.2055 3.416 54.7727 3.416V3.216C54.172 3.216 53.6224 3.36024 53.1263 3.64962L53.2271 3.82238ZM54.7727 3.416C55.3341 3.416 55.816 3.53672 56.2222 3.77432L56.3232 3.60168C55.8814 3.34328 55.3634 3.216 54.7727 3.216V3.416ZM56.2222 3.77432C56.633 4.01456 56.9351 4.31429 57.1332 4.67241L57.3082 4.57559C57.0903 4.18171 56.7605 3.85744 56.3232 3.60168L56.2222 3.77432ZM57.3207 4.624V3.424H57.1207V4.624H57.3207ZM57.2207 3.524H58.3247V3.324H57.2207V3.524ZM58.2247 3.424V10H58.4247V3.424H58.2247ZM58.3247 9.9H57.2207V10.1H58.3247V9.9ZM57.3207 10V8.776H57.1207V10H57.3207ZM57.1336 8.72697C56.9273 9.09364 56.6168 9.40165 56.1977 9.64997L56.2997 9.82203C56.7447 9.55835 57.0821 9.22636 57.3079 8.82503L57.1336 8.72697ZM56.1982 9.64968C55.7918 9.8874 55.3138 10.008 54.7607 10.008V10.208C55.3437 10.208 55.8576 10.0806 56.2992 9.82232L56.1982 9.64968ZM54.7607 10.008C54.194 10.008 53.6842 9.86852 53.2288 9.59064L53.1246 9.76136C53.6132 10.0595 54.1594 10.208 54.7607 10.208V10.008ZM53.2288 9.59064C52.7733 9.31267 52.4135 8.9226 52.1493 8.41765L51.9721 8.51035C52.252 9.0454 52.6362 9.46333 53.1246 9.76136L53.2288 9.59064ZM52.1493 8.41765C51.8857 7.91374 51.7527 7.338 51.7527 6.688H51.5527C51.5527 7.366 51.6917 7.97426 51.9721 8.51035L52.1493 8.41765ZM57.3207 6.7C57.3207 6.19039 57.2179 5.74139 57.0086 5.35625L56.8329 5.45175C57.0235 5.80261 57.1207 6.21761 57.1207 6.7H57.3207ZM57.0086 5.35625C56.8001 4.97272 56.515 4.67849 56.1535 4.47668L56.056 4.65132C56.3824 4.83351 56.6413 5.09928 56.8329 5.45175L57.0086 5.35625ZM56.1559 4.47807C55.8037 4.26845 55.4139 4.164 54.9887 4.164V4.364C55.3795 4.364 55.7337 4.45955 56.0536 4.64993L56.1559 4.47807ZM54.9887 4.164C54.5643 4.164 54.175 4.26407 53.8231 4.46518L53.9223 4.63882C54.2424 4.45593 54.5971 4.364 54.9887 4.364V4.164ZM53.8231 4.46518C53.4696 4.66715 53.189 4.96132 52.9809 5.34425L53.1566 5.43975C53.3485 5.08668 53.6038 4.82085 53.9223 4.63882L53.8231 4.46518ZM52.9809 5.34425C52.7715 5.72939 52.6687 6.17839 52.6687 6.688H52.8687C52.8687 6.20561 52.9659 5.79061 53.1566 5.43975L52.9809 5.34425ZM52.6687 6.688C52.6687 7.20538 52.7714 7.66207 52.9804 8.05496L53.157 7.96104C52.966 7.60193 52.8687 7.17862 52.8687 6.688H52.6687ZM52.9809 8.05575C53.1888 8.43838 53.469 8.73608 53.8216 8.94593L53.9239 8.77407C53.6044 8.58392 53.3486 8.31362 53.1566 7.96025L52.9809 8.05575ZM53.8231 8.94682C54.175 9.14793 54.5643 9.248 54.9887 9.248V9.048C54.5971 9.048 54.2424 8.95607 53.9223 8.77318L53.8231 8.94682ZM54.9887 9.248C55.4131 9.248 55.8024 9.14793 56.1543 8.94682L56.0551 8.77318C55.735 8.95607 55.3803 9.048 54.9887 9.048V9.248ZM56.155 8.94645C56.5157 8.73675 56.8003 8.43897 57.0086 8.05575L56.8329 7.96025C56.6411 8.31303 56.3818 8.58325 56.0545 8.77355L56.155 8.94645ZM57.009 8.05496C57.2179 7.66229 57.3207 7.20967 57.3207 6.7H57.1207C57.1207 7.18233 57.0236 7.60171 56.8324 7.96104L57.009 8.05496ZM65.3181 4.036L65.248 4.10729L65.2486 4.10786L65.3181 4.036ZM66.0621 10V10.1C66.1173 10.1 66.1621 10.0552 66.1621 10H66.0621ZM64.9821 10H64.8821C64.8821 10.0552 64.9269 10.1 64.9821 10.1V10ZM64.4901 4.78L64.4169 4.84818L64.4177 4.84901L64.4901 4.78ZM61.7661 4.792L61.6938 4.72291L61.693 4.72377L61.7661 4.792ZM61.2621 10V10.1C61.3173 10.1 61.3621 10.0552 61.3621 10H61.2621ZM60.1701 10H60.0701C60.0701 10.0552 60.1149 10.1 60.1701 10.1V10ZM60.1701 3.424V3.324C60.1149 3.324 60.0701 3.36877 60.0701 3.424H60.1701ZM61.2621 3.424H61.3621C61.3621 3.36877 61.3173 3.324 61.2621 3.324V3.424ZM61.2621 4.36H61.1621C61.1621 4.40437 61.1913 4.44344 61.2339 4.45595C61.2765 4.46845 61.3222 4.4514 61.3462 4.41408L61.2621 4.36ZM62.1381 3.58L62.0941 3.49017L62.0934 3.49056L62.1381 3.58ZM63.3741 3.404C64.1521 3.404 64.7735 3.64047 65.248 4.10728L65.3882 3.96472C64.8707 3.45553 64.1961 3.204 63.3741 3.204V3.404ZM65.2486 4.10786C65.7194 4.56353 65.9621 5.23002 65.9621 6.124H66.1621C66.1621 5.19398 65.9088 4.46847 65.3876 3.96414L65.2486 4.10786ZM65.9621 6.124V10H66.1621V6.124H65.9621ZM66.0621 9.9H64.9821V10.1H66.0621V9.9ZM65.0821 10V6.28H64.8821V10H65.0821ZM65.0821 6.28C65.0821 5.6082 64.914 5.07969 64.5625 4.71099L64.4177 4.84901C64.7222 5.16831 64.8821 5.6398 64.8821 6.28H65.0821ZM64.5633 4.71183C64.2129 4.33586 63.7364 4.152 63.1461 4.152V4.352C63.6918 4.352 64.1113 4.52014 64.4169 4.84817L64.5633 4.71183ZM63.1461 4.152C62.5475 4.152 62.0597 4.34003 61.6938 4.72291L61.8384 4.86109C62.1605 4.52397 62.5927 4.352 63.1461 4.352V4.152ZM61.693 4.72377C61.3339 5.10855 61.1621 5.66078 61.1621 6.364H61.3621C61.3621 5.69122 61.5263 5.19545 61.8392 4.86023L61.693 4.72377ZM61.1621 6.364V10H61.3621V6.364H61.1621ZM61.2621 9.9H60.1701V10.1H61.2621V9.9ZM60.2701 10V3.424H60.0701V10H60.2701ZM60.1701 3.524H61.2621V3.324H60.1701V3.524ZM61.1621 3.424V4.36H61.3621V3.424H61.1621ZM61.3462 4.41408C61.5522 4.09366 61.8304 3.84566 62.1828 3.66944L62.0934 3.49056C61.7098 3.68234 61.404 3.95434 61.178 4.30592L61.3462 4.41408ZM62.182 3.66982C62.5434 3.49298 62.9402 3.404 63.3741 3.404V3.204C62.912 3.204 62.4848 3.29902 62.0941 3.49018L62.182 3.66982ZM73.8099 7.12V7.22C73.8611 7.22 73.9041 7.18126 73.9093 7.13029L73.8099 7.12ZM68.5539 7.12V7.02C68.5263 7.02 68.4999 7.0314 68.481 7.0515C68.4621 7.0716 68.4524 7.09862 68.4541 7.12616L68.5539 7.12ZM69.2139 8.644L69.1462 8.71761L69.1477 8.71898L69.2139 8.644ZM71.8659 8.86L71.9228 8.94222L71.9232 8.94192L71.8659 8.86ZM72.5379 7.972V7.872C72.4953 7.872 72.4574 7.89894 72.4434 7.93915L72.5379 7.972ZM73.7139 7.972L73.8102 7.99883C73.8186 7.96871 73.8124 7.93641 73.7935 7.91151C73.7746 7.88662 73.7451 7.872 73.7139 7.872V7.972ZM72.6579 9.52L72.7175 9.6003L72.7183 9.59971L72.6579 9.52ZM69.0099 9.688L68.9601 9.77474L68.9607 9.77508L69.0099 9.688ZM67.8579 8.5L67.7698 8.54741L67.7701 8.54798L67.8579 8.5ZM67.8459 4.912L67.9342 4.95892L67.8459 4.912ZM68.9859 3.736L69.0346 3.82335L69.035 3.82308L68.9859 3.736ZM72.3459 3.724L72.2966 3.811L72.3459 3.724ZM73.4499 4.852L73.3616 4.89907L73.3626 4.90082L73.4499 4.852ZM72.7179 6.232V6.332C72.7731 6.332 72.8179 6.28723 72.8179 6.232H72.7179ZM72.4419 5.164L72.3563 5.21578L72.3569 5.21679L72.4419 5.164ZM71.6859 4.48L71.6402 4.56902L71.643 4.57033L71.6859 4.48ZM69.2259 4.768L69.1591 4.69359L69.1583 4.69428L69.2259 4.768ZM68.5659 6.232L68.4663 6.22306C68.4638 6.25103 68.4731 6.27876 68.4921 6.29948C68.511 6.3202 68.5378 6.332 68.5659 6.332V6.232ZM73.7459 6.46C73.7459 6.66418 73.7341 6.88072 73.7104 7.10971L73.9093 7.13029C73.9337 6.89527 73.9459 6.67182 73.9459 6.46H73.7459ZM73.8099 7.02H68.5539V7.22H73.8099V7.02ZM68.4541 7.12616C68.4953 7.7946 68.7236 8.32879 69.1462 8.71759L69.2816 8.57041C68.9042 8.22321 68.6924 7.7414 68.6537 7.11384L68.4541 7.12616ZM69.1477 8.71898C69.5751 9.0961 70.0911 9.284 70.6899 9.284V9.084C70.1367 9.084 69.6686 8.91189 69.28 8.56902L69.1477 8.71898ZM70.6899 9.284C71.1772 9.284 71.5904 9.17235 71.9228 8.94222L71.809 8.77778C71.5174 8.97965 71.1465 9.084 70.6899 9.084V9.284ZM71.9232 8.94192C72.2604 8.7059 72.4974 8.39276 72.6323 8.00485L72.4434 7.93915C72.3223 8.28724 72.1114 8.5661 71.8085 8.77808L71.9232 8.94192ZM72.5379 8.072H73.7139V7.872H72.5379V8.072ZM73.6175 7.94517C73.4475 8.55587 73.1082 9.05337 72.5975 9.44029L72.7183 9.59971C73.2635 9.18663 73.6283 8.65213 73.8102 7.99883L73.6175 7.94517ZM72.5983 9.43971C72.0906 9.81659 71.4566 10.008 70.6899 10.008V10.208C71.4911 10.208 72.1691 10.0074 72.7175 9.60029L72.5983 9.43971ZM70.6899 10.008C70.0814 10.008 69.5386 9.87166 69.059 9.60092L68.9607 9.77508C69.4731 10.0643 70.0503 10.208 70.6899 10.208V10.008ZM69.0596 9.60126C68.5882 9.33079 68.2171 8.94848 67.9456 8.45202L67.7701 8.54798C68.0586 9.07552 68.4555 9.48521 68.9601 9.77474L69.0596 9.60126ZM67.9459 8.45259C67.6749 7.94923 67.5379 7.36598 67.5379 6.7H67.3379C67.3379 7.39402 67.4809 8.01077 67.7698 8.54741L67.9459 8.45259ZM67.5379 6.7C67.5379 6.03353 67.6711 5.45416 67.9342 4.95892L67.7576 4.86508C67.4767 5.39384 67.3379 6.00647 67.3379 6.7H67.5379ZM67.9342 4.95892C68.1975 4.46325 68.564 4.0856 69.0346 3.82335L68.9372 3.64865C68.4317 3.9304 68.0382 4.33675 67.7576 4.86508L67.9342 4.95892ZM69.035 3.82308C69.5143 3.55256 70.0649 3.416 70.6899 3.416V3.216C70.0348 3.216 69.4495 3.35944 68.9367 3.64892L69.035 3.82308ZM70.6899 3.416C71.2989 3.416 71.8335 3.54859 72.2966 3.811L72.3952 3.637C71.8983 3.35541 71.3288 3.216 70.6899 3.216V3.416ZM72.2966 3.811C72.7603 4.07379 73.1147 4.43605 73.3616 4.89906L73.5381 4.80494C73.273 4.30795 72.8914 3.91821 72.3952 3.637L72.2966 3.811ZM73.3626 4.90082C73.6174 5.35631 73.7459 5.87518 73.7459 6.46H73.9459C73.9459 5.84482 73.8104 5.29169 73.5371 4.80318L73.3626 4.90082ZM72.8179 6.232C72.8179 5.80099 72.7224 5.42589 72.5268 5.11121L72.3569 5.21679C72.5293 5.49411 72.6179 5.83101 72.6179 6.232H72.8179ZM72.5274 5.11222C72.3333 4.79153 72.0665 4.5501 71.7288 4.38967L71.643 4.57033C71.9452 4.7139 72.1824 4.92847 72.3563 5.21578L72.5274 5.11222ZM71.7315 4.39102C71.4041 4.22311 71.0402 4.14 70.6419 4.14V4.34C71.0115 4.34 71.3437 4.41689 71.6402 4.56898L71.7315 4.39102ZM70.6419 4.14C70.0665 4.14 69.5704 4.32427 69.1591 4.69359L69.2927 4.8424C69.6654 4.50773 70.1133 4.34 70.6419 4.34V4.14ZM69.1583 4.69428C68.7523 5.06641 68.524 5.57954 68.4663 6.22306L68.6655 6.24094C68.7197 5.63646 68.9314 5.17358 69.2934 4.84172L69.1583 4.69428ZM68.5659 6.332H72.7179V6.132H68.5659V6.332ZM76.3793 1.12H76.4793C76.4793 1.06477 76.4345 1.02 76.3793 1.02V1.12ZM76.3793 10V10.1C76.4345 10.1 76.4793 10.0552 76.4793 10H76.3793ZM75.2873 10H75.1873C75.1873 10.0552 75.2321 10.1 75.2873 10.1V10ZM75.2873 1.12V1.02C75.2321 1.02 75.1873 1.06477 75.1873 1.12H75.2873ZM76.2793 1.12V10H76.4793V1.12H76.2793ZM76.3793 9.9H75.2873V10.1H76.3793V9.9ZM75.3873 10V1.12H75.1873V10H75.3873ZM75.2873 1.22H76.3793V1.02H75.2873V1.22Z" fill="white"/>
</g>
</g>
<defs>
<clipPath id="clip0">
<rect width="82" height="11" fill="white"/>
</clipPath>
</defs>
</svg>
